# xmcd CD database file
#
# Track frame offsets:
#	150
#	19162
#	36583
#	52728
#	63477
#	80997
#	95787
#	111203
#
# Disc length: 1696 seconds
#
# Revision: 0
# Processed by: cddbd v1.4PL0 Copyright (c) Steve Scherf et al.
# Submitted via: CDex 1.50Beta7
#
DISCID=6e069e08
DTITLE=Madhuri - EP
DYEAR=2001
DGENRE=Country
TTITLE0=Kiss
TTITLE1=40 years
TTITLE2=Soil
TTITLE3=Sunset at the porch
TTITLE4=When the morning shines
TTITLE5=Salvation
TTITLE6=On the way to be
TTITLE7=Love me
EXTD=YEAR: 2001
EXTT0=
EXTT1=
EXTT2=
EXTT3=
EXTT4=
EXTT5=
EXTT6=
EXTT7=
PLAYORDER=
